<svg xmlns="http://www.w3.org/2000/svg" viewBox="0 0 665.8 746.31"><defs><style>.cls-1{isolation:isolate;}.cls-2{mix-blend-mode:multiply;}.cls-3{fill:#1d1d1b;}.cls-4{fill:#9c9b9b;}</style></defs><title>backgrand_Cgear</title><g class="cls-1"><g id="Capa_2" data-name="Capa 2"><g id="BACKGRAND"><g id="C-GEAR" class="cls-2"><path id="GEAR" class="cls-3" d="M553.11,531.28c-6.2.81-12.41,1.27-18.62,1.58h0L440,725.33l43.13-195.51h0C370.7,511.24,269.8,417,261.86,302.42c-8.43-121.75,97.92-189.79,215.76-168.27a254.42,254.42,0,0,1,34.09,8.75h0L530.3,85.06,513,80.47l-17.76-8.3-8.47-22.62L473.29,22.06l-16.1-5.59-16-3L437,37.14l-.43,21.34-18.13.23-20.31-4L380,30.5,354.42,1.59,336.23,0l-17,1.55,7.26,30.29,9.67,25.81-17.29,6.27-21.51,1.94L267.83,42.67l-39.94-27-19,4.12L192.75,27.4,215.9,62.21l22.75,27.9-13.74,13.32L204.8,113,163.25,95.28,108.12,76l-17,11.62L79,102.53l43,34.07,37.73,25.19-6.45,20.29-14.65,18.09-51-6.17-66.75-3.35L10.38,210.39,6.87,232.2l62.72,24,50.94,15.17,4.57,24.84-4.55,25L67.68,332.51,0,352.73l1,25.35,9,24.76,74.08,3,56.43-2.16,16.94,24.12,8.32,27.14L122.35,485,69.57,529.46,83.83,554l21.1,20.74L174,551.2l49.81-22,26.24,17.14,19.56,22.66L245.08,612.1l-25.89,58.78,23.38,16.75,27.16,10.76,48.59-44.69L351.37,617l29,6.3,25.21,13.32-3.53,45.6,1.45,58.23,25.1,5.85,25.59-.38,22.6-53.26,13.32-42.07,25.44-4.28,24.6,3,12.57,39.26,20.18,46.84,21-3.56,19.32-8.66.66-50.5-3-39.31-9.71-114.66a191.05,191.05,0,0,1-48.12,12.59"/><g id="RAY"><polygon class="cls-4" points="665.8 130.12 655 119.81 642.96 110.97 625.38 120.56 612.24 130.87 612.24 130.87 596.71 122.5 582.14 111.21 581.62 91.56 577.96 67.19 564.43 58.83 550.24 52.5 538.11 69.09 533.45 78.62 532.05 81.46 511.71 142.9 511.71 142.9 414.99 434.97 504.01 434.97 483.08 529.82 439.96 725.33 534.49 532.86 618.5 361.81 547.31 361.81 628.62 216.85 628.62 216.85 656.33 167.44 655.39 166.31 661.43 150.45 665.8 130.12"/></g></g></g></g></g></svg>