<svg xmlns="http://www.w3.org/2000/svg" viewBox="0 0 34.61 38.8" style="height: 50px" ><defs><style>.cls-1{fill:#fff;}.cls-2{fill:#ffe500;}</style></defs><title>header-2_logo</title><g id="Capa_2" data-name="Capa 2"><g id="header"><g id="HEADER-2"><g id="LOGO"><path id="GEAR" class="cls-1" d="M31.22,27.05V27a10.31,10.31,0,0,1-2.46.64c-.33,0-.65.07-1,.08l-4.92,10,2.24-10.17c-5.84-1-11.08-5.86-11.5-11.82C13.18,9.39,18.7,5.86,24.83,7a13.54,13.54,0,0,1,1.77.46h0l1-3-.9-.24-.92-.43-.44-1.17-.7-1.43L23.77.86,22.94.7l-.22,1.23L22.7,3h-.95L20.7,2.84l-.95-1.25L18.43.08,17.48,0,16.6.08,17,1.66,17.48,3l-.9.32-1.12.1-1.54-1.2L11.85.81l-1,.22L10,1.42l1.2,1.81,1.19,1.45-.72.7-1,.5L8.49,5,5.62,4l-.88.6-.63.78L6.34,7.1l2,1.31L8,9.47l-.77.94-2.65-.32L1.08,9.91l-.54,1L.36,12.07l3.26,1.25,2.65.79L6.5,15.4l-.23,1.3-2.75.59L0,18.34l.05,1.32.47,1.28,3.85.16L7.31,21l.88,1.25.43,1.41L6.36,25.22,3.62,27.53l.74,1.27,1.1,1.08,3.59-1.22,2.59-1.15,1.36.9,1,1.17-1.28,2.24L11.4,34.88l1.21.87,1.41.56L16.55,34l1.72-1.9,1.51.32,1.31.7-.19,2.37.08,3,1.3.3,1.33,0L24.79,36l.69-2.19,1.32-.22,1.28.16.66,2,1,2.43,1.1-.18,1-.45,0-2.63-.16-2v.12Z"/><g id="RAY"><polygon class="cls-2" points="34.61 6.76 34.05 6.23 33.43 5.77 32.51 6.27 31.83 6.8 31.83 6.8 31.02 6.37 30.27 5.78 30.24 4.76 30.05 3.49 29.34 3.06 28.61 2.73 27.98 3.59 27.73 4.09 27.66 4.24 26.6 7.43 26.6 7.43 21.57 22.61 26.2 22.61 25.11 27.55 22.87 37.71 27.79 27.7 32.16 18.81 28.45 18.81 32.68 11.27 32.68 11.27 34.12 8.71 34.07 8.65 34.39 7.82 34.61 6.76"/></g></g></g></g></g></svg>