<svg xmlns="http://www.w3.org/2000/svg" viewBox="0 0 169.75 44"><defs><style>.cls-1{fill:#000000;}</style></defs><title>header-1_gearText</title><g id="Capa_2" data-name="Capa 2"><g id="header"><g id="HEADER-1"><g id="gear"><path class="cls-1" d="M825.9,72.81a5,5,0,0,1,.41-1.9,6.22,6.22,0,0,1,1.09-1.77,6.09,6.09,0,0,1,1.6-1.3,3.82,3.82,0,0,1,1.92-.5h7.94c-.38.48-.75.94-1.13,1.37a13,13,0,0,1-1.24,1.22h-5a1,1,0,0,0-.53.16,2.43,2.43,0,0,0-.54.44,3.12,3.12,0,0,0-.47.6,4.06,4.06,0,0,0-.33.66,3,3,0,0,0-.15.79,1.82,1.82,0,0,0,.19.78,3.19,3.19,0,0,0,.49.76,3.52,3.52,0,0,0,.65.58,1.32,1.32,0,0,0,.69.23h4.59c-.3.43-.63.88-1,1.33a7.71,7.71,0,0,1-1.29,1.26h-1.54a12.67,12.67,0,0,1-2.32-.21,6.27,6.27,0,0,1-2-.74,4.14,4.14,0,0,1-1.45-1.43,4.32,4.32,0,0,1-.55-2.29Z" transform="translate(-814.55 -63.68)"/><path class="cls-1" d="M849.45,74.14a6.94,6.94,0,0,1-3.36,2.94,5.76,5.76,0,0,1-2.2.44H842a10.92,10.92,0,0,1-2-.17,4.53,4.53,0,0,1-1.56-.59,2.93,2.93,0,0,1-1-1.12,3.83,3.83,0,0,1-.37-1.79c0-.15,0-.31,0-.48a4.88,4.88,0,0,1,.06-.52,6,6,0,0,1,.71-2.08A6.93,6.93,0,0,1,839.22,69,6.83,6.83,0,0,1,841,67.8a4.68,4.68,0,0,1,2-.46h2.53a6.43,6.43,0,0,1,3.53.79,2.93,2.93,0,0,1,1.2,2.64A7.69,7.69,0,0,1,850.2,72,6.28,6.28,0,0,1,849.45,74.14Zm-8.73-1.42v.11a1.92,1.92,0,0,0,.14.72,2.33,2.33,0,0,0,.36.68,1.71,1.71,0,0,0,.54.5,1.18,1.18,0,0,0,.65.2h1.27a1.49,1.49,0,0,0,.55-.17,4.84,4.84,0,0,0,.74-.43,6.83,6.83,0,0,0,.73-.6,3,3,0,0,0,.52-.67,2,2,0,0,0,.21-.42l.08-.19q0-.2,0-.18a1.55,1.55,0,0,0,0-.31c0-.11,0-.22,0-.34a3.15,3.15,0,0,0-.06-.61,1.18,1.18,0,0,0-.23-.55,1.22,1.22,0,0,0-.47-.39,1.89,1.89,0,0,0-.77-.14h-1.56a1.52,1.52,0,0,0-.66.16,3.6,3.6,0,0,0-.71.44,4.51,4.51,0,0,0-.64.6,3.54,3.54,0,0,0-.47.66c-.07.16-.12.3-.17.44a1.11,1.11,0,0,0-.1.35A.3.3,0,0,0,840.72,72.72Z" transform="translate(-814.55 -63.68)"/><path class="cls-1" d="M853,67.34h4.65l1.1,5.72,2.09-5.72h3.66l-3.71,10.18h-4.65L855,71.79,853,77.52h-3.69Z" transform="translate(-814.55 -63.68)"/><path class="cls-1" d="M871,74.29v-.11a.91.91,0,0,0-.06-.32.2.2,0,0,0-.21-.16h-3.84a2,2,0,0,1-1-.28,3.19,3.19,0,0,1-.8-.71,3.49,3.49,0,0,1-.51-.95,3.4,3.4,0,0,1-.17-1,2.55,2.55,0,0,1,.27-1,5.74,5.74,0,0,1,.69-1.12,4.21,4.21,0,0,1,1-.88,1.92,1.92,0,0,1,1.08-.35h9.8a12.72,12.72,0,0,1-1,1.3c-.38.44-.8.87-1.26,1.31h-6.34c-.14,0-.26.1-.36.29a1,1,0,0,0-.16.46v.09s0,0,.08.09l.11.11a.93.93,0,0,0,.22.14l.17.07h3.65a1.86,1.86,0,0,1,1.06.3,2.35,2.35,0,0,1,.72.75,3.63,3.63,0,0,1,.41,1,3.78,3.78,0,0,1,.14,1v.11a2.74,2.74,0,0,1-.24,1.07,4.2,4.2,0,0,1-.6,1,3.56,3.56,0,0,1-.86.79,1.8,1.8,0,0,1-1,.32h-9.81a6.43,6.43,0,0,1,.4-.61c.2-.29.41-.57.63-.86s.43-.54.63-.77.3-.33.34-.33h6.54q.28,0,.33-.18a1,1,0,0,0,.05-.36Z" transform="translate(-814.55 -63.68)"/><path class="cls-1" d="M880.35,69.93h-3.63v0a1.78,1.78,0,0,1,.28-.42c.17-.23.37-.49.61-.77s.48-.56.73-.82a3.56,3.56,0,0,1,.65-.56h9.63a6.66,6.66,0,0,1-.46.7c-.21.28-.43.57-.67.85a8.3,8.3,0,0,1-.69.73c-.23.21-.39.31-.49.31H884l-2.77,7.59h-3.69Z" transform="translate(-814.55 -63.68)"/><path class="cls-1" d="M889.6,67.34h8.57a1.82,1.82,0,0,1,1.06.28,2.16,2.16,0,0,1,.65.73,3.5,3.5,0,0,1,.32,1,6.9,6.9,0,0,1,.08,1,2.59,2.59,0,0,1-.48,1.61,3.56,3.56,0,0,1-1.2,1,5.69,5.69,0,0,1-1.6.54,15.18,15.18,0,0,1-1.64.22l3.77,3.86H895l-4-3.65-.22.15-1.26,3.5h-3.69Zm6.95,2.94a.63.63,0,0,0,0-.26c0-.07-.14-.11-.29-.11h-3.87l-1.09,3,1.69-1.71H896a.44.44,0,0,0,.42-.26,1.12,1.12,0,0,0,.12-.45Z" transform="translate(-814.55 -63.68)"/><path class="cls-1" d="M900.9,71.6l1.52-4.26h3.63c-.45,1.3-.8,2.32-1,3s-.42,1.27-.54,1.62l-.21.69a.68.68,0,0,0,0,.2,2.88,2.88,0,0,0-.09.61,1.53,1.53,0,0,0,.32,1,1.11,1.11,0,0,0,.87.38h.94a1.87,1.87,0,0,0,.85-.2,2.47,2.47,0,0,0,.71-.48,3.8,3.8,0,0,0,.53-.61,4.28,4.28,0,0,0,.37-.6l2.07-5.7h3.66l-1.73,4.74a23.69,23.69,0,0,1-1,2.34,7.31,7.31,0,0,1-1.14,1.7,4.28,4.28,0,0,1-1.46,1,5.12,5.12,0,0,1-2,.35h-2.25a14,14,0,0,1-2.24-.15,4.26,4.26,0,0,1-1.43-.49,2,2,0,0,1-.77-.88,3.36,3.36,0,0,1-.23-1.3,3.52,3.52,0,0,1,0-.45c0-.15,0-.32.07-.5a9.65,9.65,0,0,1,.24-1C900.68,72.42,900.78,72,900.9,71.6Z" transform="translate(-814.55 -63.68)"/><path class="cls-1" d="M913.72,72.81a5,5,0,0,1,.4-1.9,6.18,6.18,0,0,1,2.69-3.07,3.82,3.82,0,0,1,1.92-.5h7.94c-.37.48-.75.94-1.12,1.37a14.3,14.3,0,0,1-1.24,1.22h-5a1,1,0,0,0-.53.16,2.43,2.43,0,0,0-.54.44,3.56,3.56,0,0,0-.47.6,4.06,4.06,0,0,0-.33.66,3,3,0,0,0-.15.79,1.82,1.82,0,0,0,.19.78,3.19,3.19,0,0,0,.49.76,3.27,3.27,0,0,0,.66.58,1.26,1.26,0,0,0,.68.23h4.59c-.29.43-.63.88-1,1.33a8,8,0,0,1-1.28,1.26h-1.54a12.78,12.78,0,0,1-2.33-.21,6.45,6.45,0,0,1-2-.74,4.14,4.14,0,0,1-1.45-1.43,4.41,4.41,0,0,1-.54-2.29Z" transform="translate(-814.55 -63.68)"/><path class="cls-1" d="M925.84,72.81a5,5,0,0,1,.41-1.9,6.45,6.45,0,0,1,1.09-1.77,6.26,6.26,0,0,1,1.6-1.3,3.82,3.82,0,0,1,1.92-.5h7.94c-.37.48-.75.94-1.13,1.37a11.93,11.93,0,0,1-1.24,1.22h-5a1,1,0,0,0-.53.16,2.43,2.43,0,0,0-.54.44,3.56,3.56,0,0,0-.47.6,4.06,4.06,0,0,0-.33.66,3,3,0,0,0-.15.79,1.85,1.85,0,0,0,.19.78,3.19,3.19,0,0,0,.49.76,3.52,3.52,0,0,0,.65.58,1.32,1.32,0,0,0,.69.23H936c-.29.43-.63.88-1,1.33a7.71,7.71,0,0,1-1.29,1.26h-1.53a12.78,12.78,0,0,1-2.33-.21,6.27,6.27,0,0,1-2-.74,4.14,4.14,0,0,1-1.45-1.43,4.41,4.41,0,0,1-.55-2.29Z" transform="translate(-814.55 -63.68)"/><path class="cls-1" d="M935.45,77.5a3,3,0,0,1,.28-.42c.17-.23.38-.49.62-.77s.48-.55.73-.82a3.56,3.56,0,0,1,.64-.56H940l1.82-5h-3.63v0a2.24,2.24,0,0,1,.28-.42c.17-.23.38-.49.61-.77s.49-.56.73-.82a3.56,3.56,0,0,1,.65-.56h9.63a5.45,5.45,0,0,1-.45.71c-.22.28-.44.57-.68.85a6.12,6.12,0,0,1-.69.73.94.94,0,0,1-.49.31h-2.27l-1.82,5h3.63a5.46,5.46,0,0,1-.45.7c-.21.29-.44.57-.67.85a6.18,6.18,0,0,1-.7.73c-.22.21-.38.31-.49.31h-9.59Z" transform="translate(-814.55 -63.68)"/><path class="cls-1" d="M962.17,72a5.4,5.4,0,0,1-.71,1.91A8.4,8.4,0,0,1,960,75.7,7.61,7.61,0,0,1,958.09,77a5.12,5.12,0,0,1-2.23.51h-1.92a10.25,10.25,0,0,1-2.15-.21,3.93,3.93,0,0,1-1.64-.74,2.85,2.85,0,0,1-1-1.43,5.09,5.09,0,0,1-.11-2.29,5.33,5.33,0,0,1,.7-1.9,8,8,0,0,1,1.4-1.79A7.29,7.29,0,0,1,953,67.84a4.42,4.42,0,0,1,2-.51h2.54a8.15,8.15,0,0,1,2.12.26,3.91,3.91,0,0,1,1.57.82,3,3,0,0,1,.87,1.44A4.91,4.91,0,0,1,962.17,72Zm-9.46.58a1.77,1.77,0,0,0,.06.78,2.51,2.51,0,0,0,.35.76,2.34,2.34,0,0,0,.55.58,1.25,1.25,0,0,0,.71.23h1.27a1.49,1.49,0,0,0,.59-.17,4.34,4.34,0,0,0,.73-.43,5.78,5.78,0,0,0,.71-.6,3.22,3.22,0,0,0,.51-.67,1.33,1.33,0,0,0,.21-.42l.08-.19a.71.71,0,0,1,0-.18l0-.37v-.39a2.22,2.22,0,0,0-.07-.59,1.47,1.47,0,0,0-.25-.5,1.23,1.23,0,0,0-.47-.36,1.82,1.82,0,0,0-.74-.13h-1.56a1.55,1.55,0,0,0-.66.16,3.54,3.54,0,0,0-.7.44,4.58,4.58,0,0,0-.65.6,4.08,4.08,0,0,0-.47.66c-.06.16-.12.3-.17.44A1.46,1.46,0,0,0,952.71,72.58Zm4.85-7.9.46-.42a5.34,5.34,0,0,1,.44-.39.68.68,0,0,1,.44-.19.65.65,0,0,1,.56,1,.56.56,0,0,1-.16.25l-.23.23-.46.45-.31.23c-.13.07-.25.14-.39.2a3,3,0,0,1-.39.14,1.16,1.16,0,0,1-.33.06c-.09,0-.15,0-.17,0l-.06-.07a.34.34,0,0,1-.1-.22.66.66,0,0,1,.08-.32,1.31,1.31,0,0,1,.28-.47Z" transform="translate(-814.55 -63.68)"/><path class="cls-1" d="M965,67.33h4.65l1.09,5.73,2.1-5.73h3.65l-3.71,10.19h-4.65L967,71.79l-2.07,5.73h-3.69Z" transform="translate(-814.55 -63.68)"/><path class="cls-1" d="M846.31,82.41a5.45,5.45,0,0,1-.45.71c-.21.28-.43.57-.67.85a8.3,8.3,0,0,1-.69.73c-.23.21-.39.31-.49.31h-5.92L837,88l1.83-1.77h4.44l-2.75,2.59h-3.83L836.26,90h7.36l-.09.16a2.26,2.26,0,0,0-.16.26l-.15.25a.42.42,0,0,1-.1.13,4.08,4.08,0,0,1-.47.54l-.58.59-.51.47a1.63,1.63,0,0,1-.24.19h-9.67l3.71-10.19Z" transform="translate(-814.55 -63.68)"/><path class="cls-1" d="M847.37,82.41H852l1.1,5.73,2.09-5.73h3.65L855.15,92.6H850.5l-1.07-5.73-2.08,5.73h-3.69Z" transform="translate(-814.55 -63.68)"/><path class="cls-1" d="M865.36,89.37v-.11a.91.91,0,0,0-.06-.32.21.21,0,0,0-.21-.16h-3.84a2,2,0,0,1-1-.28,3,3,0,0,1-.8-.71,3.49,3.49,0,0,1-.51-1,3.4,3.4,0,0,1-.17-1,2.55,2.55,0,0,1,.27-1,5.74,5.74,0,0,1,.69-1.12,4.21,4.21,0,0,1,1-.88,1.94,1.94,0,0,1,1.08-.36h9.8a13.14,13.14,0,0,1-1,1.31c-.38.44-.8.87-1.26,1.31h-6.34c-.14,0-.26.09-.37.29a1.05,1.05,0,0,0-.15.46v.09s0,0,.08.09a1.11,1.11,0,0,1,.11.11.76.76,0,0,0,.22.14l.17.07h3.65a1.86,1.86,0,0,1,1.06.3,2.42,2.42,0,0,1,.72.74,3.84,3.84,0,0,1,.41,1,3.74,3.74,0,0,1,.13,1v.11a2.72,2.72,0,0,1-.23,1.07,4.2,4.2,0,0,1-.6,1,3.43,3.43,0,0,1-.87.79,1.75,1.75,0,0,1-1,.32h-9.8a6.43,6.43,0,0,1,.4-.61c.19-.29.41-.57.63-.86s.43-.54.62-.77.31-.33.35-.33H865q.28,0,.33-.18a1.36,1.36,0,0,0,.05-.36Z" transform="translate(-814.55 -63.68)"/><path class="cls-1" d="M879.12,92.6l-.4-2.17a2.44,2.44,0,0,1-.28.44q-.24.33-.54.69c-.2.25-.39.47-.59.68a1.71,1.71,0,0,1-.42.36h-8.13c0-.1,0-.15,0-.13v-.06l6.92-8.84a1.41,1.41,0,0,1,.23-.31,4.31,4.31,0,0,1,.37-.37,4,4,0,0,1,.41-.33.59.59,0,0,1,.33-.15h3.23a.48.48,0,0,1,.36.22,2,2,0,0,1,.28.52c.07.2.14.41.2.64s.1.41.14.57l1.27,8.24ZM874.82,90h3.9L878,85.51l-3.22,4.32Z" transform="translate(-814.55 -63.68)"/><path class="cls-1" d="M894.73,92.6l2.07-5.73-5.22,5.73h-1.33l-1.06-5.73-2.07,5.73h-3.69l3.71-10.19h4.65l1,5.12,4.71-5.12h4.65L898.42,92.6Z" transform="translate(-814.55 -63.68)"/><path class="cls-1" d="M912,82.41a1.67,1.67,0,0,1,1,.25,1.75,1.75,0,0,1,.59.62,2.73,2.73,0,0,1,.31.9,6.23,6.23,0,0,1,.09,1.06v0a1.86,1.86,0,0,1-.17.75,3.57,3.57,0,0,1-.4.68,3.49,3.49,0,0,1-.52.56,2.46,2.46,0,0,1-.51.35,1.63,1.63,0,0,1,.38.49,1.67,1.67,0,0,1,.2.7,1.71,1.71,0,0,1-.1.54c-.06.18-.13.36-.19.52l-.08.21a7.32,7.32,0,0,1-.6,1.16,2.7,2.7,0,0,1-.8.78,4,4,0,0,1-1.16.44,9,9,0,0,1-1.7.14h-8.83l3.71-10.19ZM908.07,90c.12-.07.23-.12.3-.17l.23-.13a1.06,1.06,0,0,0,.18-.13,3.07,3.07,0,0,1,.17-.3l0-.1a.56.56,0,0,0,0-.19c0-.09,0-.18,0-.27h-4.43L904.13,90Zm-1.35-3.67h3.07s.05,0,.09-.09L910,86l.14-.22.09-.17,0-.09a.41.41,0,0,1,0-.1,2.37,2.37,0,0,0-.21-.26c-.09-.11-.15-.16-.18-.16h-3.94L904.87,88Z" transform="translate(-814.55 -63.68)"/><path class="cls-1" d="M912.74,92.6l3.7-10.19h3.68L917.35,90h6.09a1.74,1.74,0,0,1-.22.32c-.16.22-.36.47-.61.76s-.5.58-.76.87a6,6,0,0,1-.68.64Z" transform="translate(-814.55 -63.68)"/><path class="cls-1" d="M938.16,82.41a5.45,5.45,0,0,1-.45.71c-.21.28-.43.57-.67.85a8.3,8.3,0,0,1-.69.73c-.23.21-.39.31-.49.31h-5.92l-1.1,3,1.83-1.77h4.44l-2.75,2.59h-3.83L928.11,90h7.36l-.09.16a2.26,2.26,0,0,0-.16.26l-.15.25a.42.42,0,0,1-.1.13,4.08,4.08,0,0,1-.47.54l-.58.59-.51.47a1.63,1.63,0,0,1-.24.19H923.5l3.71-10.19Z" transform="translate(-814.55 -63.68)"/><path class="cls-1" d="M944.64,89.37v-.11a.91.91,0,0,0-.06-.32.21.21,0,0,0-.21-.16h-3.84a2,2,0,0,1-1-.28,3.19,3.19,0,0,1-.8-.71,3.49,3.49,0,0,1-.51-1,3.4,3.4,0,0,1-.17-1,2.55,2.55,0,0,1,.27-1,5.74,5.74,0,0,1,.69-1.12,4.21,4.21,0,0,1,1-.88,1.94,1.94,0,0,1,1.08-.36h9.8a13.14,13.14,0,0,1-1,1.31c-.38.44-.8.87-1.26,1.31H942.2c-.14,0-.26.09-.37.29a1.05,1.05,0,0,0-.15.46v.09s0,0,.08.09a1.11,1.11,0,0,1,.11.11.76.76,0,0,0,.22.14l.17.07h3.65a1.85,1.85,0,0,1,1.07.3,2.34,2.34,0,0,1,.73.74,3.49,3.49,0,0,1,.4,1,4.2,4.2,0,0,1,.12,1v.11a2.72,2.72,0,0,1-.23,1.07,4.2,4.2,0,0,1-.6,1,3.43,3.43,0,0,1-.87.79,1.75,1.75,0,0,1-1,.32h-9.8a6.43,6.43,0,0,1,.4-.61c.19-.29.41-.57.63-.86s.43-.54.62-.77.31-.33.35-.33h6.54q.29,0,.33-.18a1.36,1.36,0,0,0,0-.36Z" transform="translate(-814.55 -63.68)"/><path class="cls-1" d="M959.25,87.76l-2.18-5.35h4.12l1,2.41,2.73-2.41H969l-6,5.35-1.77,4.84h-3.69Z" transform="translate(-814.55 -63.68)"/><path class="cls-1" d="M825.85,107.68l2.08-5.73-5.23,5.73h-1.32L820.32,102l-2.08,5.73h-3.69l3.71-10.18h4.65l1,5.11,4.71-5.12h4.65l-3.71,10.19Z" transform="translate(-814.55 -63.68)"/><path class="cls-1" d="M840.83,107.68l-.41-2.17a2,2,0,0,1-.28.44c-.16.22-.34.45-.53.69s-.4.47-.59.68a1.71,1.71,0,0,1-.42.36h-8.13c0-.1,0-.15,0-.13v-.06l6.92-8.84a1.53,1.53,0,0,1,.24-.31A3.23,3.23,0,0,1,838,98a2.91,2.91,0,0,1,.4-.33.64.64,0,0,1,.34-.15H842a.46.46,0,0,1,.35.22,1.77,1.77,0,0,1,.28.51,4.47,4.47,0,0,1,.2.65l.15.57,1.27,8.24Zm-4.31-2.57h3.9l-.67-4.52-3.23,4.32Z" transform="translate(-814.55 -63.68)"/><path class="cls-1" d="M848.84,97.49h4.65l1.1,5.73,2.09-5.73h3.65l-3.71,10.19H852L850.9,102l-2.08,5.73h-3.69Z" transform="translate(-814.55 -63.68)"/><path class="cls-1" d="M864,100.09h-3.63v0a2.24,2.24,0,0,1,.28-.42c.17-.23.38-.49.62-.77s.48-.56.73-.82a4.16,4.16,0,0,1,.64-.57h9.63a5.45,5.45,0,0,1-.45.71c-.21.28-.44.57-.68.85a6.12,6.12,0,0,1-.69.73c-.22.21-.38.31-.49.31H867.7l-2.77,7.59h-3.69Z" transform="translate(-814.55 -63.68)"/><path class="cls-1" d="M884.2,97.49a5.45,5.45,0,0,1-.45.71c-.21.28-.43.57-.67.85a8.3,8.3,0,0,1-.69.73c-.23.21-.39.31-.49.31H876l-1.1,3,1.83-1.77h4.44l-2.75,2.59h-3.82l-.43,1.16h7.36l-.09.16-.16.26-.15.25a.42.42,0,0,1-.1.13,4.08,4.08,0,0,1-.47.54L880,107l-.51.47a1.63,1.63,0,0,1-.24.19h-9.67l3.71-10.19Z" transform="translate(-814.55 -63.68)"/><path class="cls-1" d="M885.26,97.49h4.65l1.1,5.73,2.09-5.73h3.65L893,107.68h-4.65L887.32,102l-2.08,5.73h-3.69Z" transform="translate(-814.55 -63.68)"/><path class="cls-1" d="M894,107.66a2,2,0,0,1,.27-.42c.18-.23.38-.49.62-.77s.48-.55.73-.82a3.56,3.56,0,0,1,.64-.56h2.31l1.83-5h-3.64v0a3,3,0,0,1,.28-.42c.17-.23.38-.49.62-.77s.48-.56.73-.82a4.16,4.16,0,0,1,.64-.57h9.63a5.45,5.45,0,0,1-.45.71c-.21.28-.44.57-.67.85a7.07,7.07,0,0,1-.7.73c-.22.21-.38.31-.49.31h-2.26l-1.83,5h3.63a5.46,5.46,0,0,1-.45.7c-.21.29-.44.57-.67.85a7.1,7.1,0,0,1-.69.73c-.23.21-.39.31-.49.31H894Z" transform="translate(-814.55 -63.68)"/><path class="cls-1" d="M917.26,107.68l2.08-5.73-5.23,5.73h-1.33l-1-5.73-2.08,5.73H906l3.71-10.19h4.65l1,5.12L920,97.49h4.65L921,107.68Z" transform="translate(-814.55 -63.68)"/><path class="cls-1" d="M921.93,107.66a3,3,0,0,1,.28-.42c.17-.23.38-.49.62-.77s.48-.55.73-.82a3.56,3.56,0,0,1,.64-.56h2.31l1.82-5H924.7v0a2.24,2.24,0,0,1,.28-.42c.17-.23.38-.49.61-.77s.48-.56.73-.82a4.16,4.16,0,0,1,.65-.57h9.63a5.45,5.45,0,0,1-.45.71c-.22.28-.44.57-.68.85a7,7,0,0,1-.69.73.94.94,0,0,1-.49.31H932l-1.82,5h3.63a5.46,5.46,0,0,1-.45.7c-.21.29-.44.57-.68.85a6.12,6.12,0,0,1-.69.73.94.94,0,0,1-.49.31h-9.59Z" transform="translate(-814.55 -63.68)"/><path class="cls-1" d="M948.53,97.49a5.45,5.45,0,0,1-.45.71c-.21.28-.43.57-.67.85a8.3,8.3,0,0,1-.69.73c-.23.21-.39.31-.49.31h-5.92l-1.1,3,1.83-1.77h4.44l-2.75,2.59H938.9l-.42,1.16h7.36l-.09.16a2.26,2.26,0,0,0-.16.26l-.15.25a.71.71,0,0,1-.1.13,4.08,4.08,0,0,1-.47.54c-.2.21-.39.4-.59.59l-.51.47a1.35,1.35,0,0,1-.23.19h-9.67l3.71-10.19Z" transform="translate(-814.55 -63.68)"/><path class="cls-1" d="M949.59,97.49h4.65l1.1,5.73,2.09-5.73h3.65l-3.71,10.19h-4.65L951.65,102l-2.08,5.73h-3.69Z" transform="translate(-814.55 -63.68)"/><path class="cls-1" d="M964.75,100.09h-3.63v0a2.24,2.24,0,0,1,.28-.42c.17-.23.38-.49.61-.77s.49-.56.73-.82a4.16,4.16,0,0,1,.65-.57H973a5.45,5.45,0,0,1-.45.71c-.22.28-.44.57-.68.85a6.12,6.12,0,0,1-.69.73.94.94,0,0,1-.49.31h-2.27l-2.76,7.59H962Z" transform="translate(-814.55 -63.68)"/><path class="cls-1" d="M983.43,104.3a6.73,6.73,0,0,1-1.43,1.75,7,7,0,0,1-1.92,1.19,5.76,5.76,0,0,1-2.2.44H976a10.84,10.84,0,0,1-2-.17,4.53,4.53,0,0,1-1.56-.59,2.93,2.93,0,0,1-1-1.12A3.83,3.83,0,0,1,971,104a4,4,0,0,1,0-.48,4.88,4.88,0,0,1,.06-.52,5.78,5.78,0,0,1,.71-2.08,6.93,6.93,0,0,1,1.38-1.75A6.83,6.83,0,0,1,975,98a4.68,4.68,0,0,1,2-.47h2.54a6.43,6.43,0,0,1,3.53.8,2.93,2.93,0,0,1,1.2,2.64,6.73,6.73,0,0,1-.12,1.23A5.88,5.88,0,0,1,983.43,104.3Zm-8.72-1.42V103a2.11,2.11,0,0,0,.13.72,2.62,2.62,0,0,0,.37.68,1.71,1.71,0,0,0,.54.5,1.18,1.18,0,0,0,.65.2h1.27a1.49,1.49,0,0,0,.55-.17,5.37,5.37,0,0,0,.74-.43,6.83,6.83,0,0,0,.73-.6,3,3,0,0,0,.52-.67,2,2,0,0,0,.21-.42l.07-.19c0-.13,0-.19,0-.18a3,3,0,0,0,0-.31c0-.11,0-.22,0-.34a3.15,3.15,0,0,0-.06-.61,1.18,1.18,0,0,0-.23-.55,1.22,1.22,0,0,0-.47-.39,1.91,1.91,0,0,0-.78-.14h-1.55a1.59,1.59,0,0,0-.67.16,4.41,4.41,0,0,0-.7.43,5.26,5.26,0,0,0-.64.61,3.54,3.54,0,0,0-.47.66c-.07.16-.12.3-.18.44a1.39,1.39,0,0,0-.09.35A.3.3,0,0,0,974.71,102.88Z" transform="translate(-814.55 -63.68)"/></g></g></g></g></svg>