<?xml version="1.0" encoding="utf-8"?>
<!-- Generator: Adobe Illustrator 24.0.1, SVG Export Plug-In . SVG Version: 6.00 Build 0)  -->
<svg version="1.1" id="Capa_1" xmlns="http://www.w3.org/2000/svg" xmlns:xlink="http://www.w3.org/1999/xlink" x="0px" y="0px"
	 viewBox="0 0 294.4 98.2" style="enable-background:new 0 0 294.4 98.2;" xml:space="preserve">
<style type="text/css">
	.st0{fill:#FFE500;}
	.st1{fill:#FFFFFF;}
</style>
<g id="LOGO">
	<g id="RAY">
		<polygon class="st0" points="87.5,17.1 86.1,15.8 84.5,14.6 82.2,15.9 80.5,17.2 80.5,17.2 78.4,16.1 76.5,14.6 76.4,12.1 
			75.9,8.9 74.2,7.8 72.3,6.9 70.7,9.1 70.1,10.4 69.9,10.7 67.2,18.8 67.2,18.8 54.5,57.3 66.2,57.3 63.5,69.7 57.8,95.5 
			70.2,70.1 81.3,47.6 71.9,47.6 82.6,28.5 82.6,28.5 86.3,22 86.1,21.9 86.9,19.8 		"/>
	</g>
	<g id="GEAR">
		<path class="st1" d="M168.1,73.9c-0.3-0.1-0.5-0.1-0.8-0.1H166l-0.4,1.9h1.3c0.5,0,0.9-0.1,1.3-0.3c0.3-0.2,0.4-0.5,0.4-0.8
			c0-0.2,0-0.3-0.1-0.5C168.3,74,168.2,73.9,168.1,73.9z"/>
		<path class="st1" d="M207,73.8c-0.3-0.1-0.6-0.1-0.9-0.1H205l-1,4.9h1c0.4,0,0.8,0,1.2-0.1c0.2,0,0.4-0.1,0.5-0.2
			c0.2-0.1,0.4-0.3,0.5-0.5c0.2-0.3,0.4-0.6,0.5-1c0.1-0.4,0.2-0.8,0.2-1.2c0-0.4-0.1-0.8-0.3-1.2C207.5,74.1,207.3,73.9,207,73.8z"
			/>
		<path class="st1" d="M238.7,73.8c-0.2,0.4-0.4,0.9-0.6,1.3l-1,1.8h2.1l-0.2-1.6C238.8,74.7,238.7,74.2,238.7,73.8z"/>
		<path class="st1" d="M198.6,73.8c-0.1,0.4-0.3,0.8-0.6,1.3l-1,1.8h2.1l-0.2-1.6C198.7,74.7,198.6,74.2,198.6,73.8z"/>
		<path class="st1" d="M135.4,73.6c-0.7,0-1.3,0.3-1.7,0.8c-0.5,0.6-0.8,1.4-0.7,2.2c0,0.3,0.1,0.7,0.2,1c0.1,0.3,0.4,0.6,0.7,0.7
			c0.3,0.2,0.6,0.3,0.9,0.3c0.3,0,0.6-0.1,0.9-0.2c0.3-0.2,0.6-0.4,0.8-0.6c0.2-0.3,0.4-0.6,0.5-1c0.1-0.4,0.2-0.8,0.2-1.2
			c0-0.5-0.2-1.1-0.5-1.5C136.4,73.8,135.9,73.6,135.4,73.6z"/>
		<path class="st1" d="M167,76.5h-1.6l-0.5,2.1h1.4c0.3,0,0.5,0,0.8,0c0.2,0,0.4-0.1,0.6-0.2c0.2-0.1,0.3-0.3,0.4-0.4
			c0.1-0.2,0.1-0.4,0.1-0.6c0-0.3-0.1-0.5-0.3-0.7C167.7,76.6,167.4,76.5,167,76.5z"/>
		<path class="st1" d="M159.6,73.8c-0.2,0.4-0.4,0.9-0.6,1.3l-1,1.8h2.1l-0.2-1.6C159.7,74.7,159.6,74.2,159.6,73.8z"/>
		<path class="st1" d="M191.1,73.8c-0.3-0.1-0.6-0.1-0.9-0.1h-1.1l-1,4.9h1c0.4,0,0.8,0,1.2-0.1c0.2,0,0.4-0.1,0.5-0.2
			c0.2-0.1,0.4-0.3,0.5-0.5c0.2-0.3,0.4-0.6,0.5-1c0.1-0.4,0.2-0.8,0.2-1.2c0-0.4-0.1-0.8-0.3-1.2C191.6,74.1,191.4,73.9,191.1,73.8
			z"/>
		<path class="st1" d="M128.4,73.9c-0.3-0.1-0.6-0.1-0.8-0.1H126l-0.5,2.3h1.4c0.4,0,0.8,0,1.2-0.2c0.2-0.1,0.5-0.3,0.6-0.5
			c0.1-0.2,0.2-0.5,0.2-0.7c0-0.2,0-0.3-0.1-0.5C128.7,74,128.6,73.9,128.4,73.9z"/>
		<path class="st1" d="M274.1,73.8c-0.3-0.1-0.6-0.1-0.9-0.1H272l-1,4.9h1c0.4,0,0.8,0,1.2-0.1c0.2,0,0.4-0.1,0.5-0.2
			c0.2-0.1,0.4-0.3,0.5-0.5c0.2-0.3,0.4-0.6,0.5-1c0.1-0.4,0.2-0.8,0.2-1.2c0-0.4-0.1-0.8-0.3-1.2C274.6,74.1,274.4,73.9,274.1,73.8
			z"/>
		<path class="st1" d="M105.1,73.9c-0.2-0.1-0.4-0.1-0.7-0.1h-2l-0.4,2.1h1.2c0.5,0,0.9,0,1,0c0.3,0,0.5-0.1,0.8-0.2
			c0.2-0.1,0.4-0.3,0.5-0.4c0.1-0.2,0.2-0.4,0.2-0.6c0-0.2,0-0.3-0.1-0.5C105.3,74,105.2,73.9,105.1,73.9z"/>
		<path class="st1" d="M265.7,73.8c-0.2,0.4-0.4,0.9-0.6,1.3l-1.1,1.8h2l-0.2-1.6C265.8,74.7,265.7,74.2,265.7,73.8z"/>
		<path class="st1" d="M287,68.5L78.9,68.2v0.1c-2,0.8-4.1,1.4-6.2,1.6c-0.8,0.1-1.6,0.2-2.5,0.2L57.8,95.5l5.7-25.7
			c-14.8-2.4-28.1-14.9-29.1-29.9c-1.1-16,12.9-25,28.4-22.2c1.5,0.3,3,0.7,4.5,1.2l2.5-7.6l-2.3-0.6l-2.3-1.1l-1.1-3l-1.8-3.6
			L60,2.2L58,1.8l-0.5,3.1l-0.1,2.8H55l-2.7-0.5L49.9,4l-3.3-3.8L44.1,0l-2.3,0.2l1,4l1.3,3.4l-2.2,0.8L39,8.7l-3.9-3l-5.3-3.6
			l-2.5,0.5l-2.1,1l3,4.6l3,3.7l-1.8,1.8l-2.6,1.3l-5.5-2.3L14.1,10l-2.2,1.5l-1.6,2l5.6,4.5l5,3.3L20,24l-1.9,2.4l-6.7-0.8
			l-8.8-0.5l-1.4,2.6l-0.5,2.9L9,33.7l6.7,2l0.6,3.3l-0.6,3.3l-7,1.5l-8.9,2.6L0,49.8L1.2,53l9.8,0.4l7.4-0.3l2.2,3.2l1.1,3.6
			l-5.7,4L9,69.7l1.8,3.2l2.8,2.7l9.1-3.1l6.6-2.9l3.5,2.2l2.6,3l-3.2,5.7l-3.4,7.7l3.1,2.2l3.6,1.4l6.4-5.9l4.4-4.8l3.8,0.8
			l3.3,1.8l-0.5,6l0.2,7.7l3.3,0.8h3.4l3-7l1.8-5.5l3.3-0.6l3.2,0.4l1.7,5.2l2.7,6.2l2.8-0.5l2.6-1.1l0.1-6.6l-0.4-5.2L282,83.7
			L287,68.5z M104.8,77c0.3,0.4,0.5,0.7,0.6,1.1l0.5,1.2H105l-0.4-1.2c-0.1-0.4-0.3-0.7-0.6-1.1c-0.1-0.2-0.2-0.3-0.4-0.4
			c-0.2-0.1-0.5-0.1-0.7-0.1h-1l-0.6,2.8h-0.8l1.3-6.2h2.6c0.4,0,0.8,0,1.2,0.1c0.3,0.1,0.5,0.3,0.6,0.5c0.2,0.3,0.2,0.6,0.2,0.9
			c0,0.5-0.2,0.9-0.5,1.3c-0.5,0.4-1,0.6-1.6,0.7C104.5,76.7,104.6,76.8,104.8,77z M114.2,73.8h-3.7l-0.4,1.9h3.6l-0.2,0.7H110
			l-0.5,2.2h3.9l-0.2,0.7h-4.7l1.3-6.2h4.5L114.2,73.8z M121.8,74.8l-0.8,0.1c0-0.1,0-0.3,0-0.4c-0.1-0.2-0.1-0.3-0.3-0.4
			c-0.1-0.1-0.3-0.2-0.5-0.3c-0.2-0.1-0.5-0.1-0.7-0.1c-0.4,0-0.8,0.1-1.1,0.3c-0.2,0.2-0.3,0.4-0.3,0.6c0,0.1,0,0.3,0.1,0.4
			c0.1,0.2,0.3,0.3,0.4,0.4c0.2,0.1,0.5,0.2,1,0.5c0.3,0.1,0.6,0.3,0.9,0.5c0.2,0.1,0.4,0.3,0.5,0.5c0.1,0.2,0.2,0.5,0.2,0.7
			c0,0.3-0.1,0.7-0.3,0.9c-0.2,0.3-0.5,0.5-0.8,0.7c-0.4,0.2-0.8,0.2-1.2,0.2c-0.6,0-1.2-0.1-1.7-0.5c-0.5-0.4-0.7-1-0.7-1.6
			l0.8-0.1v0.2c0,0.2,0.1,0.5,0.2,0.7c0.1,0.2,0.3,0.4,0.5,0.5c0.3,0.1,0.6,0.2,0.9,0.2c0.4,0,0.8-0.1,1.1-0.3
			c0.2-0.2,0.4-0.4,0.4-0.7c0-0.2-0.1-0.4-0.2-0.5c-0.3-0.3-0.7-0.5-1.2-0.6c-0.3-0.1-0.7-0.3-1-0.5c-0.3-0.1-0.5-0.4-0.6-0.6
			c-0.1-0.2-0.2-0.5-0.2-0.7c0-0.3,0.1-0.6,0.3-0.9c0.2-0.3,0.5-0.5,0.8-0.6c0.8-0.3,1.6-0.3,2.4,0c0.3,0.1,0.6,0.4,0.8,0.7
			c0.1,0.2,0.2,0.5,0.2,0.8V74.8z M129.5,75.4c-0.1,0.2-0.2,0.5-0.4,0.7c-0.1,0.2-0.3,0.3-0.5,0.4c-0.2,0.1-0.3,0.2-0.5,0.2
			c-0.4,0.1-0.8,0.1-1.2,0.1h-1.6l-0.4,2.5H124l1.3-6.2h2.6c0.3,0,0.7,0,1,0.2c0.2,0.1,0.4,0.3,0.5,0.5c0.2,0.3,0.2,0.6,0.2,0.9
			C129.6,74.9,129.6,75.2,129.5,75.4z M137.7,77.5c-0.2,0.4-0.4,0.7-0.7,1c-0.3,0.3-0.6,0.5-0.9,0.7c-0.4,0.2-0.9,0.3-1.3,0.3
			c-0.5,0-0.9-0.1-1.4-0.3c-0.4-0.2-0.7-0.6-0.9-1c-0.2-0.4-0.3-0.9-0.4-1.4c0-1,0.3-2,1-2.7c0.6-0.7,1.4-1,2.3-1
			c0.7,0,1.4,0.3,1.9,0.8c0.5,0.5,0.8,1.3,0.7,2C138.1,76.4,138,76.9,137.7,77.5z M145.2,79.3h-0.8l-1.5-3.6
			c-0.3-0.6-0.5-1.2-0.6-1.7c0,0.4-0.1,0.9-0.2,1.5l-0.8,3.8h-0.8l1.3-6.2h0.8l1,2.3c0.3,0.7,0.6,1.3,0.8,1.8
			c0.1,0.3,0.2,0.7,0.4,1.1c0.1-0.5,0.2-1.1,0.3-1.6l0.8-3.7h0.8L145.2,79.3z M154,74.9l-0.8,0.1c0-0.1,0-0.3,0-0.4
			c-0.1-0.2-0.1-0.3-0.3-0.4c-0.1-0.1-0.3-0.2-0.5-0.3c-0.2-0.1-0.5-0.1-0.7-0.1c-0.4,0-0.8,0.1-1.1,0.3c-0.2,0.1-0.3,0.4-0.3,0.6
			c0,0.1,0,0.3,0.1,0.4c0.1,0.2,0.3,0.3,0.4,0.3c0.2,0.1,0.5,0.2,1,0.5c0.3,0.1,0.6,0.3,0.9,0.5c0.2,0.1,0.4,0.3,0.5,0.5
			c0.1,0.2,0.2,0.5,0.2,0.7c0,0.3-0.1,0.7-0.3,0.9c-0.2,0.3-0.5,0.5-0.8,0.7c-0.4,0.2-0.8,0.2-1.2,0.2c-0.6,0-1.2-0.1-1.7-0.5
			c-0.5-0.4-0.8-1-0.7-1.6l0.8-0.1v0.2c0,0.2,0.1,0.5,0.2,0.7c0.1,0.2,0.3,0.4,0.5,0.5c0.3,0.1,0.6,0.2,0.9,0.2
			c0.4,0,0.8-0.1,1.1-0.3c0.2-0.2,0.4-0.4,0.4-0.7c0-0.2-0.1-0.4-0.2-0.5c-0.3-0.3-0.7-0.5-1.2-0.6c-0.3-0.1-0.7-0.3-1-0.5
			c-0.3-0.1-0.5-0.4-0.6-0.6c-0.1-0.2-0.2-0.5-0.2-0.7c0-0.3,0.1-0.6,0.3-0.9c0.2-0.3,0.5-0.5,0.8-0.6c0.4-0.1,0.8-0.2,1.2-0.2
			c0.4,0,0.9,0.1,1.3,0.3c0.3,0.1,0.6,0.4,0.8,0.7c0.1,0.2,0.2,0.5,0.2,0.8V74.9z M160.4,79.3l-0.3-1.8h-2.5l-1,1.8h-0.9l3.5-6.2h1
			l1,6.2H160.4z M168.9,76.5c0.2,0.2,0.3,0.5,0.2,0.8c0,0.4-0.1,0.7-0.3,1c-0.2,0.3-0.5,0.6-0.8,0.7c-0.3,0.2-0.7,0.3-1.1,0.3l-3,0
			l1.3-6.2h1.9c0.3,0,0.5,0,0.8,0c0.2,0,0.5,0.1,0.7,0.2c0.2,0.1,0.3,0.3,0.5,0.5c0.1,0.2,0.2,0.4,0.1,0.7c0,0.3-0.1,0.6-0.3,0.9
			c-0.2,0.3-0.5,0.5-0.9,0.6C168.4,76.1,168.7,76.3,168.9,76.5z M172.6,79.3h-0.8l1.3-6.2h0.8L172.6,79.3z M180,79.3H176l1.3-6.2
			h0.8l-1.2,5.5h3.2L180,79.3z M183.7,79.3h-0.8l1.3-6.2h0.8L183.7,79.3z M192.6,77c-0.1,0.4-0.3,0.8-0.6,1.1c-0.4,0.6-1,1-1.7,1.1
			c-0.3,0.1-0.7,0.1-1,0.1h-2.2l1.3-6.2h1.9c0.3,0,0.7,0,1,0.1c0.3,0.1,0.6,0.2,0.9,0.5c0.2,0.2,0.4,0.5,0.5,0.8
			c0.1,0.4,0.2,0.7,0.2,1.1C192.8,76.1,192.8,76.6,192.6,77z M199.4,79.3l-0.3-1.8h-2.5l-1,1.8h-0.9l3.5-6.2h1l1,6.2H199.4z
			 M207.9,78.1c-0.2,0.3-0.5,0.5-0.8,0.7c-0.3,0.2-0.6,0.3-1,0.4c-0.3,0.1-0.7,0.1-1,0.1H203l1.3-6.2h1.9c0.3,0,0.7,0,1,0.1
			c0.3,0.1,0.6,0.2,0.9,0.5c0.2,0.2,0.4,0.5,0.5,0.8c0.1,0.4,0.2,0.7,0.2,1.1C208.7,76.5,208.4,77.4,207.9,78.1z M218.7,77l-0.5,2.3
			h-0.9l0.5-2.4l-1.9-3.8h0.9l0.9,1.8c0.2,0.4,0.4,0.8,0.6,1.3c0.2-0.4,0.5-0.9,0.9-1.3l1.5-1.8h1L218.7,77z M228.9,78.2
			c0.3,0.3,0.8,0.5,1.2,0.5c0.4,0,0.8-0.1,1.2-0.4c0.4-0.3,0.6-0.7,0.7-1.2l0.8,0.1c-0.2,0.6-0.6,1.2-1.1,1.6
			c-0.5,0.4-1.1,0.6-1.7,0.6c-0.7,0-1.3-0.2-1.8-0.7c-0.5-0.6-0.7-1.3-0.7-2c0-1,0.3-2,1-2.8c0.6-0.6,1.4-1,2.3-0.9
			c0.6,0,1.2,0.2,1.6,0.5c0.4,0.4,0.7,0.9,0.7,1.4l-0.8,0.1c0-0.4-0.2-0.7-0.5-1c-0.3-0.2-0.6-0.4-1-0.3c-0.7,0-1.4,0.4-1.8,1
			c-0.4,0.6-0.6,1.3-0.6,2.1C228.4,77.3,228.6,77.8,228.9,78.2z M239.5,79.3l-0.3-1.8h-2.5l-1,1.8h-0.9l3.5-6.2h1l1,6.2H239.5z
			 M247.1,79.3H243l1.3-6.2h0.8l-1.2,5.5h3.2L247.1,79.3z M250.7,79.3h-0.8l1.3-6.2h0.8L250.7,79.3z M259.7,77
			c-0.1,0.4-0.3,0.8-0.6,1.1c-0.4,0.6-1,1-1.7,1.1c-0.3,0.1-0.7,0.1-1,0.1h-2.2l1.3-6.2h1.9c0.3,0,0.7,0,1,0.1
			c0.3,0.1,0.6,0.2,0.9,0.5c0.2,0.2,0.4,0.5,0.5,0.8c0.1,0.4,0.2,0.7,0.2,1.1C259.9,76.1,259.8,76.6,259.7,77z M266.5,79.3l-0.3-1.8
			h-2.5l-1,1.8h-0.9l3.5-6.2h1l1,6.2H266.5z M275.6,77c-0.1,0.4-0.3,0.8-0.6,1.1c-0.4,0.6-1,1-1.7,1.1c-0.3,0.1-0.7,0.1-1,0.1H270
			l1.3-6.2h1.9c0.3,0,0.7,0,1,0.1c0.3,0.1,0.6,0.2,0.9,0.5c0.2,0.2,0.4,0.5,0.5,0.8c0.1,0.4,0.2,0.7,0.2,1.1
			C275.8,76.1,275.7,76.6,275.6,77z"/>
		<path class="st1" d="M258.2,73.8c-0.3-0.1-0.6-0.1-0.9-0.1h-1.1l-1,4.9h1c0.4,0,0.8,0,1.2-0.1c0.2,0,0.4-0.1,0.5-0.2
			c0.2-0.1,0.4-0.3,0.5-0.5c0.2-0.3,0.4-0.6,0.5-1c0.1-0.4,0.2-0.8,0.2-1.2c0-0.4-0.1-0.8-0.3-1.2C258.7,74.1,258.5,73.9,258.2,73.8
			z"/>
	</g>
	<g id="CONEMA">
		<path id="A" class="st1" d="M242.9,63.4l-0.9-4.7c-0.2,0.4-0.4,0.7-0.6,1c-0.4,0.5-0.7,1-1.2,1.5s-0.9,1-1.3,1.5
			c-0.3,0.3-0.6,0.6-0.9,0.8h-17.7c0-0.1,0-0.2,0.1-0.3V63l15.1-19.3c0.1-0.2,0.3-0.5,0.5-0.7c0.2-0.3,0.5-0.5,0.8-0.8
			c0.3-0.3,0.6-0.5,0.9-0.7c0.2-0.2,0.5-0.3,0.7-0.3h7c0.3,0,0.6,0.2,0.8,0.5c0.3,0.3,0.5,0.7,0.6,1.1c0.2,0.5,0.3,0.9,0.4,1.4
			c0.1,0.5,0.2,0.9,0.3,1.2l2.8,18L242.9,63.4z M233.5,57.8h8.5l-1.5-9.8l-7,9.4L233.5,57.8z"/>
		<path id="M" class="st1" d="M211.2,63.4l4.5-12.5l-11.4,12.5h-2.9l-2.3-12.5l-4.5,12.5h-8l8.1-22.2h10.1l2.1,11.2l10.3-11.2h10.1
			l-8.1,22.2H211.2z"/>
		<path id="E" class="st1" d="M192.4,41.2c-0.3,0.5-0.6,1-1,1.5c-0.5,0.6-1,1.2-1.5,1.9c-0.5,0.6-1,1.1-1.5,1.6
			c-0.5,0.5-0.8,0.7-1.1,0.7h-12.9l-2.4,6.6l4-3.9h9.7l-6,5.7h-8.3l-0.9,2.5h16l-0.2,0.4c-0.1,0.2-0.2,0.4-0.3,0.6s-0.2,0.4-0.3,0.5
			l-0.2,0.3c-0.3,0.4-0.6,0.8-1,1.2c-0.4,0.5-0.9,0.9-1.3,1.3s-0.8,0.8-1.1,1c-0.2,0.2-0.3,0.3-0.5,0.4h-21l8.1-22.2L192.4,41.2z"/>
		<path id="N" class="st1" d="M141.1,41.2h10.1l2.4,12.5l4.6-12.5h8l-8.1,22.2h-10.2l-2.4-12.5L141,63.4H133L141.1,41.2z"/>
		<path id="O" class="st1" d="M134,56c-1.7,2.9-4.2,5.2-7.3,6.4c-1.5,0.7-3.1,1-4.8,1h-4.2c-1.4,0-2.9-0.1-4.3-0.4
			c-1.2-0.2-2.4-0.6-3.4-1.3c-1-0.6-1.7-1.4-2.2-2.5c-0.6-1.2-0.9-2.5-0.8-3.9c0-0.3,0-0.7,0-1s0.1-0.7,0.1-1.1
			c0.2-1.6,0.8-3.1,1.6-4.5c0.8-1.4,1.8-2.7,3-3.8c1.2-1.1,2.5-2,4-2.7c1.4-0.7,2.9-1,4.4-1h5.5c3.4,0,5.9,0.6,7.7,1.7
			c1.8,1.2,2.6,3,2.6,5.8c0,0.9-0.1,1.8-0.3,2.7C135.4,53,134.8,54.6,134,56z M115,52.9v0.3c0,0.5,0.1,1.1,0.3,1.6
			c0.2,0.5,0.5,1,0.8,1.5c0.3,0.4,0.7,0.8,1.2,1.1c0.4,0.3,0.9,0.4,1.4,0.4h2.8c0.4,0,0.8-0.2,1.2-0.3c0.6-0.3,1.1-0.6,1.6-1
			c0.6-0.4,1.1-0.8,1.6-1.3c0.4-0.4,0.8-0.9,1.1-1.4c0.2-0.3,0.4-0.6,0.5-0.9l0.2-0.4c0.1-0.3,0.1-0.4,0.1-0.4c0-0.2,0-0.5,0.1-0.7
			s0-0.5,0-0.7c0-0.4,0-0.9-0.1-1.3c-0.1-0.4-0.2-0.8-0.5-1.2c-0.3-0.4-0.6-0.6-1-0.8c-0.5-0.2-1.1-0.3-1.7-0.3H121
			c-0.5,0-1,0.1-1.4,0.4c-0.5,0.2-1.1,0.6-1.5,0.9c-0.5,0.4-1,0.8-1.4,1.3c-0.4,0.4-0.7,0.9-1,1.4c-0.1,0.3-0.3,0.7-0.4,1
			c-0.1,0.2-0.2,0.5-0.2,0.8C115,52.7,115,52.8,115,52.9L115,52.9z"/>
		<path id="C" class="st1" d="M83.6,53.2c0-1.4,0.3-2.8,0.9-4.2c0.6-1.4,1.4-2.7,2.4-3.8c1-1.1,2.2-2.1,3.5-2.8
			c1.3-0.7,2.7-1.1,4.2-1.1h17.3c-0.8,1.1-1.6,2.1-2.4,3c-0.8,0.9-1.7,1.8-2.7,2.7H95.8c-0.4,0-0.8,0.1-1.2,0.4
			c-0.4,0.3-0.8,0.6-1.2,0.9c-0.8,0.8-1.4,1.7-1.7,2.8c-0.2,0.6-0.3,1.1-0.3,1.7c0,0.6,0.2,1.2,0.4,1.7c0.3,0.6,0.7,1.2,1.1,1.7
			c0.4,0.5,0.9,0.9,1.4,1.3c0.4,0.3,1,0.5,1.5,0.5h10c-0.6,1-1.4,1.9-2.2,2.9c-0.8,1-1.8,1.9-2.8,2.8h-3.4c-1.7,0-3.4-0.1-5.1-0.4
			c-1.6-0.3-3.1-0.8-4.5-1.7c-1.3-0.8-2.4-1.8-3.2-3.1C83.9,56.7,83.4,55,83.6,53.2L83.6,53.2z"/>
	</g>
	<g id="MX">
		<path class="st1" d="M268.6,63.4l2.6-7.3l-6.7,7.3h-1.7l-1.4-7.3l-2.6,7.3h-4.7l4.7-13h6l1.2,6.5l6-6.5h5.9l-4.7,13H268.6z"/>
		<path class="st1" d="M274.4,63.4l7.4-6.5l-2.6-6.5h5.2l1.2,3.1l3.5-3.1h5.2l-7.3,6.5l2.6,6.5h-5.2l-1.3-3.1l-3.5,3.1H274.4z"/>
	</g>
</g>
</svg>
