<?xml version="1.0" encoding="utf-8"?>
<!-- Generator: Adobe Illustrator 24.0.1, SVG Export Plug-In . SVG Version: 6.00 Build 0)  -->
<svg version="1.1" id="Capa_1" xmlns="http://www.w3.org/2000/svg" xmlns:xlink="http://www.w3.org/1999/xlink" x="0px" y="0px"
	 viewBox="0 0 34.6 38.8" style="enable-background:new 0 0 34.6 38.8;" xml:space="preserve">
<style type="text/css">
	.st0{fill:#CB2F1D;}
	.st1{fill:#FFE500;}
</style>
<g id="Capa_2_1_">
	<g id="header">
		<g id="HEADER-2">
			<g id="LOGO">
				<path id="GEAR" class="st0" d="M31.2,27L31.2,27c-0.8,0.3-1.6,0.5-2.5,0.6c-0.3,0-0.6,0.1-1,0.1l-4.9,10l2.2-10.2
					c-5.8-1-11.1-5.9-11.5-11.8C13.2,9.4,18.7,5.9,24.8,7c0.6,0.1,1.2,0.3,1.8,0.5l0,0l1-3l-0.9-0.2l-0.9-0.4l-0.4-1.2l-0.7-1.4
					l-0.9-0.3l-0.8-0.2l-0.2,1.2l0,1.1h-1l-1-0.2l-1-1.2l-1.3-1.5l-1-0.1l-0.9,0.1L17,1.7L17.5,3l-0.9,0.3l-1.1,0.1l-1.5-1.2
					l-2.1-1.4l-1,0.2L10,1.4l1.2,1.8l1.2,1.5l-0.7,0.7l-1,0.5L8.5,5L5.6,4L4.7,4.6L4.1,5.4l2.2,1.7l2,1.3L8,9.5l-0.8,0.9l-2.7-0.3
					L1.1,9.9l-0.5,1l-0.2,1.2l3.3,1.2l2.7,0.8l0.2,1.3l-0.2,1.3l-2.8,0.6L0,18.3l0.1,1.3l0.5,1.3l3.8,0.2L7.3,21l0.9,1.2l0.4,1.4
					l-2.3,1.6l-2.7,2.3l0.7,1.3l1.1,1.1L9,28.7l2.6-1.1l1.4,0.9l1,1.2l-1.3,2.2l-1.3,3.1l1.2,0.9l1.4,0.6l2.5-2.3l1.7-1.9l1.5,0.3
					l1.3,0.7l-0.2,2.4l0.1,3l1.3,0.3h1.3l1.2-2.8l0.7-2.2l1.3-0.2l1.3,0.2l0.7,2l1,2.4l1.1-0.2l1-0.5v-2.6l-0.2-2V33L31.2,27z"/>
				<g id="RAY">
					<polygon class="st1" points="34.6,6.8 34,6.2 33.4,5.8 32.5,6.3 31.8,6.8 31.8,6.8 31,6.4 30.3,5.8 30.2,4.8 30,3.5 29.3,3.1 
						28.6,2.7 28,3.6 27.7,4.1 27.7,4.2 26.6,7.4 26.6,7.4 21.6,22.6 26.2,22.6 25.1,27.5 22.9,37.7 27.8,27.7 32.2,18.8 28.5,18.8 
						32.7,11.3 32.7,11.3 34.1,8.7 34.1,8.6 34.4,7.8 					"/>
				</g>
			</g>
		</g>
	</g>
</g>
</svg>
