<svg xmlns="http://www.w3.org/2000/svg" viewBox="0 0 169.47 47.95"><defs><style>.cls-1{isolation:isolate;}.cls-2{opacity:0.2;mix-blend-mode:lighten;}.cls-3{fill:#fff;}</style></defs><title>footer_logo</title><g class="cls-1"><g id="Capa_2" data-name="Capa 2"><g id="FOOTER"><g id="logo" class="cls-2"><path class="cls-3" d="M37.88,40.91l124.45.19,3.13-9.58-128.64-.2C35.06,34,32,35.47,28.16,35.09l-3,8.52,1.1-8.84C18.75,33,11.93,25.16,11.3,17.05c-.64-8.33,5.77-12.15,12.86-10a16.2,16.2,0,0,1,3,1.27c-1.08,3-6,16.9-7,19.55l7-.47-.91,7.32a14,14,0,0,0,1.92.32l4.08-11.52L28.39,23,36.22,10.5l-1.92-2c-.14-.14-.31-.2-.38-.13l-.77.45A1,1,0,0,1,32,8.7l-.48-.4a1,1,0,0,1-.36-.79l.05-1.38c.05-.14-.27-.45-.57-.62L28.38,4c-.16-.11-.32-.11-.35,0l-.26.54a1,1,0,0,1-1.3.45c-.3-.16-.61-.3-.93-.45A1,1,0,0,1,25,3.94l-.55-1.6A.61.61,0,0,0,24.1,2l-3-1c-.18-.06-.31,0-.28.16l0,.68a1,1,0,0,1-1.1,1c-.24,0-.48-.06-.72-.09a.92.92,0,0,1-.69-.4L16.92.3a.64.64,0,0,0-.5-.3L13.33.05c-.2,0-.27.15-.17.33L13.88,2A1,1,0,0,1,13.3,3.3h0a1,1,0,0,1-.91-.16l-2.5-2A.63.63,0,0,0,9.25.93L6.41,2.38c-.18.09-.17.31,0,.49L8.39,5a1,1,0,0,1,0,1.33,1.29,1.29,0,0,0-.16.17,1,1,0,0,1-1.09.26L3.87,5.47a.53.53,0,0,0-.69.08L1.32,8.76c-.12.21,0,.49.32.63l3.2,1.82a1,1,0,0,1,.46,1.08,17.41,17.41,0,0,0-.32,2,1,1,0,0,1-.94.87l-3.43.07A.5.5,0,0,0,0,15.7l.24,5a.66.66,0,0,0,.69.58l4.12.45a1,1,0,0,1,.82.67q.28.91.63,1.83a1,1,0,0,1-.39,1.18L2.54,27.66a.63.63,0,0,0-.29.88l3,5.48a.68.68,0,0,0,.94.24l4.11-1.89a1,1,0,0,1,1.14.26c.37.45.76.88,1.16,1.31A1,1,0,0,1,12.81,35l-2.1,4.44a.81.81,0,0,0,.18,1l5,3.78a.57.57,0,0,0,.86-.26l2.34-3.8a1,1,0,0,1,1.27-.35c.5.26,1,.5,1.51.72a1,1,0,0,1,.57.84l.25,4.93a.77.77,0,0,0,.54.84l5.07.75c.29,0,.51-.26.5-.66l.22-4.11a1,1,0,0,1,.93-.92A15.89,15.89,0,0,0,32.08,42a1,1,0,0,1,1,.55l1.76,3.77c.13.35.42.55.63.43l3.39-1.85c.19-.1.23-.45.1-.78l-1.11-3.25"/><path class="cls-3" d="M36.11,21.83a7,7,0,0,1,.55-2.62,8.86,8.86,0,0,1,1.5-2.44A8.35,8.35,0,0,1,40.35,15a5.21,5.21,0,0,1,2.63-.7H53.84c-.5.67-1,1.3-1.54,1.89a16.76,16.76,0,0,1-1.69,1.68H43.77a1.45,1.45,0,0,0-.73.22,3.32,3.32,0,0,0-.73.6,5.42,5.42,0,0,0-.65.83,4.52,4.52,0,0,0-.44.92A3.65,3.65,0,0,0,41,21.51a2.52,2.52,0,0,0,.27,1.07,4.46,4.46,0,0,0,.67,1.05,4.39,4.39,0,0,0,.89.79,1.76,1.76,0,0,0,.94.32h6.29c-.41.6-.86,1.21-1.37,1.84a11.62,11.62,0,0,1-1.77,1.73h-2.1A17.49,17.49,0,0,1,41.64,28a8.75,8.75,0,0,1-2.79-1,5.61,5.61,0,0,1-2-2,6,6,0,0,1-.75-3.15Z"/><path class="cls-3" d="M68.34,23.65a9.43,9.43,0,0,1-4.59,4.05,7.68,7.68,0,0,1-3,.61H58.11a14.17,14.17,0,0,1-2.69-.24,6.14,6.14,0,0,1-2.13-.81,4.11,4.11,0,0,1-1.41-1.54,5.34,5.34,0,0,1-.51-2.46c0-.22,0-.44,0-.67a6.43,6.43,0,0,1,.08-.71,8.22,8.22,0,0,1,1-2.86,9.93,9.93,0,0,1,1.89-2.42,10.29,10.29,0,0,1,2.49-1.68,6.45,6.45,0,0,1,2.75-.63h3.47a8.68,8.68,0,0,1,4.83,1.1A4,4,0,0,1,69.52,19a10.39,10.39,0,0,1-.15,1.7A8.27,8.27,0,0,1,68.34,23.65Zm-11.94-2v.16a3.07,3.07,0,0,0,.18,1,3.47,3.47,0,0,0,.5.93,2.54,2.54,0,0,0,.74.69,1.63,1.63,0,0,0,.89.27h1.74a2.07,2.07,0,0,0,.75-.23,7.28,7.28,0,0,0,1-.59,8.73,8.73,0,0,0,1-.84,3.53,3.53,0,0,0,.71-.91,2.35,2.35,0,0,0,.29-.58l.11-.27a1.05,1.05,0,0,1,.05-.23c0-.14,0-.29,0-.44s0-.3,0-.46a4.89,4.89,0,0,0-.08-.85,1.92,1.92,0,0,0-.31-.75,1.71,1.71,0,0,0-.65-.53,2.47,2.47,0,0,0-1.06-.2H60.18a2.12,2.12,0,0,0-.9.22,4.49,4.49,0,0,0-1,.6,6.27,6.27,0,0,0-.88.83,4.59,4.59,0,0,0-.65.92c-.09.21-.17.41-.24.59a2.4,2.4,0,0,0-.13.49S56.4,21.59,56.4,21.69Z"/><path class="cls-3" d="M73.18,14.29h6.37l1.5,7.88,2.87-7.88h5l-5.07,14H77.47L76,20.43l-2.84,7.88H68.1Z"/><path class="cls-3" d="M105.38,14.29a6.2,6.2,0,0,1-.61,1c-.29.4-.6.79-.92,1.18a13.71,13.71,0,0,1-.95,1c-.31.28-.53.42-.67.42H94.12L92.62,22l2.5-2.43h6.08l-3.76,3.57H92.2l-.58,1.59H101.7l-.13.22-.21.36c-.07.12-.14.24-.21.34l-.13.19a8.8,8.8,0,0,1-.65.74l-.8.81c-.26.25-.5.47-.7.64a1.92,1.92,0,0,1-.33.27H85.31l5.08-14Z"/><path class="cls-3" d="M117.22,28.31l2.85-7.88-7.16,7.88h-1.82l-1.44-7.88-2.84,7.88h-5.06l5.08-14h6.37l1.34,7,6.45-7h6.36l-5.07,14Z"/><path class="cls-3" d="M137.72,28.31l-.55-3a3.69,3.69,0,0,1-.39.61c-.21.3-.46.61-.73.95s-.54.64-.8.93a2.41,2.41,0,0,1-.58.5H123.54a.93.93,0,0,1,0-.19V28l9.47-12.16a2,2,0,0,1,.32-.43c.16-.17.33-.35.51-.51a6.83,6.83,0,0,1,.55-.45.83.83,0,0,1,.46-.2h4.42a.61.61,0,0,1,.49.29,2.51,2.51,0,0,1,.38.71,8.39,8.39,0,0,1,.28.89c.08.31.14.57.2.78l1.73,11.35Zm-5.89-3.55h5.34l-.92-6.21-4.42,5.95Z"/><path class="cls-3" d="M153.27,28.31l1.66-4.62-4.19,4.62h-1.06l-.85-4.62-1.66,4.62h-3l3-8.21h3.73l.79,4.12,3.77-4.12h3.73l-3,8.21Z"/><path class="cls-3" d="M156.93,28.31l4.64-4.12-1.65-4.09h3.3L164,22l2.18-1.94h3.3l-4.61,4.09,1.65,4.12h-3.28l-.8-2-2.22,2Z"/></g></g></g></g></svg>