<svg xmlns="http://www.w3.org/2000/svg" viewBox="0 0 210.27 12.28"><defs><style>.cls-1{isolation:isolate;}.cls-2{opacity:0.2;mix-blend-mode:lighten;}.cls-3{fill:#fff;}</style></defs><title>footer_copy</title><g class="cls-1"><g id="Capa_2" data-name="Capa 2"><g id="FOOTER"><g id="_" data-name="©" class="cls-2"><path class="cls-3" d="M0,9.65,4.18,4.24a1.73,1.73,0,0,0,.33-.6,2.34,2.34,0,0,0,.06-.5A1.67,1.67,0,0,0,4.2,2.05a1.41,1.41,0,0,0-1.11-.48A1.42,1.42,0,0,0,2,2a1.82,1.82,0,0,0-.51,1.18H0A3.44,3.44,0,0,1,.9.89,2.82,2.82,0,0,1,3,0,3,3,0,0,1,5.21.91,3.13,3.13,0,0,1,6.1,3.16,3.12,3.12,0,0,1,5.46,5.1L2,9.55H6.1v1.58H0Z"/><path class="cls-3" d="M7.53,3.17a3,3,0,0,1,1-2.35A2.92,2.92,0,0,1,10.56,0a3,3,0,0,1,2.13.82,3.14,3.14,0,0,1,.91,2.35V8a3.15,3.15,0,0,1-.91,2.35,3.09,3.09,0,0,1-2.13.83A3,3,0,0,1,7.53,8Zm4.55.1c0-1.11-.54-1.68-1.52-1.7s-1.48.59-1.5,1.7V8c0,1.12.52,1.69,1.5,1.7s1.49-.58,1.52-1.7Z"/><path class="cls-3" d="M14.88,9.65l4.19-5.41a2.14,2.14,0,0,0,.33-.6,2.34,2.34,0,0,0,.06-.5,1.68,1.68,0,0,0-.38-1.09A1.39,1.39,0,0,0,18,1.57,1.42,1.42,0,0,0,16.93,2a1.88,1.88,0,0,0-.52,1.18H14.88a3.44,3.44,0,0,1,.9-2.28A2.84,2.84,0,0,1,17.86,0,3,3,0,0,1,20.1.91,3.13,3.13,0,0,1,21,3.16a3.13,3.13,0,0,1-.65,1.94L16.9,9.55H21v1.58H14.88Z"/><path class="cls-3" d="M24.77,1.76,23.24,2.91V1.23L24.77.09h1.52v11H24.77Z"/><path class="cls-3" d="M30.33,9.55h1.53v1.58l-1.53,1.15Z"/><path class="cls-3" d="M45.07,8a4.19,4.19,0,0,1-1.35,2.36,3.7,3.7,0,0,1-2.41.82,3.61,3.61,0,0,1-2.1-.64A3.6,3.6,0,0,1,38,9.24q-.12-.26-.21-.48a3.14,3.14,0,0,1-.15-.59,19.76,19.76,0,0,1-.11-2.56A19.51,19.51,0,0,1,37.6,3,3.2,3.2,0,0,1,38,2,3.8,3.8,0,0,1,39.21.62a3.87,3.87,0,0,1,4.63.32,4.2,4.2,0,0,1,1.23,2.33H43.35a2.37,2.37,0,0,0-.72-1.14,2.06,2.06,0,0,0-1.32-.47,2.16,2.16,0,0,0-1,.24,2,2,0,0,0-.67.57,1.87,1.87,0,0,0-.42.92,13.26,13.26,0,0,0-.12,2.22,13.11,13.11,0,0,0,.12,2.21,1.9,1.9,0,0,0,.42.93,1.82,1.82,0,0,0,.67.55,1.87,1.87,0,0,0,1,.25,2.17,2.17,0,0,0,2-1.51Z"/><path class="cls-3" d="M46.12,5.61A18,18,0,0,1,46.23,3a2.94,2.94,0,0,1,.35-1A3.8,3.8,0,0,1,47.83.62,3.6,3.6,0,0,1,49.93,0a3.68,3.68,0,0,1,3.35,2A2.64,2.64,0,0,1,53.65,3a22.28,22.28,0,0,1,.1,2.57,22.58,22.58,0,0,1-.1,2.56,2.69,2.69,0,0,1-.37,1.07,3.51,3.51,0,0,1-1.22,1.34,3.71,3.71,0,0,1-2.13.64,3.61,3.61,0,0,1-2.1-.64,3.6,3.6,0,0,1-1.25-1.34l-.21-.48a2.56,2.56,0,0,1-.14-.59A18,18,0,0,1,46.12,5.61Zm1.61,0a13.11,13.11,0,0,0,.12,2.21,1.9,1.9,0,0,0,.42.93A1.86,1.86,0,0,0,49,9.3a1.81,1.81,0,0,0,1,.25,1.94,1.94,0,0,0,1-.25,1.72,1.72,0,0,0,.64-.55A2,2,0,0,0,52,7.82a14.74,14.74,0,0,0,.11-2.21A14.9,14.9,0,0,0,52,3.39a2,2,0,0,0-.44-.92,1.87,1.87,0,0,0-.64-.57,2.28,2.28,0,0,0-1-.24,2.12,2.12,0,0,0-1,.24,2,2,0,0,0-.68.57,1.87,1.87,0,0,0-.42.92A13.26,13.26,0,0,0,47.73,5.61Z"/><path class="cls-3" d="M55.94.09h1.52L62.3,7.94h0V.09H64v11H62.42L57.58,3.28h0v7.85H55.94Z"/><path class="cls-3" d="M66.54.09h6.83V1.66H68.16V4.82h4.45V6.31H68.16V9.55h5.21v1.58H66.54Z"/><path class="cls-3" d="M75.17.09h1.52l3.07,7.2,3-7.2h1.53v11H82.68V4.25h0L80.4,9.55H79.05l-2.24-5.3h0v6.88H75.17Z"/><path class="cls-3" d="M92.39,8.66h-4l-.82,2.47H85.8l3.89-11h1.36l3.88,11H93.22Zm-.46-1.48L90.39,2.35h0L88.81,7.18Z"/><path class="cls-3" d="M100.22,8.46a4.62,4.62,0,0,0,3,1.09c1.39,0,2.09-.53,2.11-1.53,0-.83-.45-1.32-1.39-1.49l-1.42-.2a3.43,3.43,0,0,1-2.09-1.06,3,3,0,0,1-.74-2,3.08,3.08,0,0,1,.93-2.34A3.57,3.57,0,0,1,103.21,0a5.89,5.89,0,0,1,3.47,1.14l-.9,1.37a4.87,4.87,0,0,0-2.65-.85,2,2,0,0,0-1.25.39,1.46,1.46,0,0,0-.54,1.2,1.23,1.23,0,0,0,.36.86,2,2,0,0,0,1.15.55c.3,0,.7.11,1.21.17A3.26,3.26,0,0,1,106.28,6,3.2,3.2,0,0,1,107,8q-.08,3.16-3.75,3.21a5.94,5.94,0,0,1-4.08-1.51Z"/><path class="cls-3" d="M108.89,9.55h1.53v1.58h-1.53Z"/><path class="cls-3" d="M116.42.09h3.74A3.58,3.58,0,0,1,123.42,2a3.45,3.45,0,0,1,.49,1.3c0,.46.08,1.24.08,2.36a15.39,15.39,0,0,1-.13,2.48,2.4,2.4,0,0,1-.17.64l-.3.57a3.74,3.74,0,0,1-1.31,1.28,3.56,3.56,0,0,1-2,.55h-3.63ZM118,9.55H120a2.18,2.18,0,0,0,2-1,1.91,1.91,0,0,0,.34-.9,18,18,0,0,0,.07-2,19.82,19.82,0,0,0-.07-2.06,1.85,1.85,0,0,0-.41-1A2.14,2.14,0,0,0,120,1.66H118Z"/><path class="cls-3" d="M126.19.09H133V1.66H127.8V4.82h4.45V6.31H127.8V9.55H133v1.58h-6.83Z"/><path class="cls-3" d="M138.53.09h4.17a3.18,3.18,0,0,1,2.18.73,2.93,2.93,0,0,1,1.06,2.35,3,3,0,0,1-2.06,3.06l2.47,4.9h-1.92l-2.21-4.72h-2.07v4.72h-1.62Zm1.62,4.84h2.45a1.71,1.71,0,0,0,1.82-1.76,1.47,1.47,0,0,0-.54-1.25,1.8,1.8,0,0,0-1.19-.35h-2.54Z"/><path class="cls-3" d="M147.89,9.55h1.53v1.58h-1.53Z"/><path class="cls-3" d="M151.7.09h1.62V9.55h5.21v1.58H151.7Z"/><path class="cls-3" d="M160.23,9.55h1.53v1.58h-1.53Z"/><path class="cls-3" d="M167.76.09h3.74A3.58,3.58,0,0,1,174.76,2a3.45,3.45,0,0,1,.49,1.3c.05.46.08,1.24.08,2.36a15.39,15.39,0,0,1-.13,2.48,3.49,3.49,0,0,1-.17.64l-.3.57a3.74,3.74,0,0,1-1.31,1.28,3.56,3.56,0,0,1-2,.55h-3.63Zm1.62,9.46h1.94a2.18,2.18,0,0,0,2-1,1.91,1.91,0,0,0,.34-.9,18,18,0,0,0,.07-2,19.82,19.82,0,0,0-.07-2.06,1.94,1.94,0,0,0-.42-1,2.12,2.12,0,0,0-1.9-.94h-1.94Z"/><path class="cls-3" d="M177.52.09h6.83V1.66h-5.21V4.82h4.45V6.31h-4.45V9.55h5.21v1.58h-6.83Z"/><path class="cls-3" d="M197.08,8a4.13,4.13,0,0,1-1.35,2.36,3.69,3.69,0,0,1-2.41.82,3.61,3.61,0,0,1-2.1-.64A3.6,3.6,0,0,1,190,9.24q-.12-.26-.21-.48a3.14,3.14,0,0,1-.15-.59,19.76,19.76,0,0,1-.11-2.56A19.51,19.51,0,0,1,189.61,3,3.2,3.2,0,0,1,190,2,3.8,3.8,0,0,1,191.22.62a3.87,3.87,0,0,1,4.63.32,4.2,4.2,0,0,1,1.23,2.33h-1.72a2.37,2.37,0,0,0-.72-1.14,2.06,2.06,0,0,0-1.32-.47,2.19,2.19,0,0,0-1,.24,2,2,0,0,0-.67.57,1.87,1.87,0,0,0-.42.92,13.26,13.26,0,0,0-.12,2.22,13.11,13.11,0,0,0,.12,2.21,1.9,1.9,0,0,0,.42.93,1.82,1.82,0,0,0,.67.55,1.87,1.87,0,0,0,1,.25,2.17,2.17,0,0,0,2-1.51Z"/><path class="cls-3" d="M198.4,9.55h1.53v1.58H198.4Z"/><path class="cls-3" d="M201.09.09h1.72l2.42,8.41h0L207.69.09h1.71l-3.52,11h-1.26Z"/><path class="cls-3" d="M208.74,9.55h1.53v1.58h-1.53Z"/></g></g></g></g></svg>