<svg xmlns="http://www.w3.org/2000/svg" viewBox="0 0 36.66 41.65"><defs><style>.cls-1{fill:#1b223a;fill-rule:evenodd;}</style></defs><title>body_contact_phonebotton</title><g id="Capa_2" data-name="Capa 2"><g id="BODY"><g id="CONTACT_INFO"><g id="iconPhone"><path class="cls-1" d="M0,12.66a13.66,13.66,0,0,1,4.22-9.9C5.3,1.73,6.75-.19,8.38,0s2.92,2.22,3.74,3.6c1.48,2.43,3.84,6,1.67,8.64-1,1.28-2.68,2-3.62,3.36s-.4,3.28.26,4.69a28.17,28.17,0,0,0,6.69,8.55c1.16,1,2.75,2.23,4.34,1.94s2.93-2.22,4.15-3.28c3.11-2.67,6.51,1,8.8,3.14,1.06,1,2.31,2.35,2.24,4s-2.11,3-3.22,4a12.06,12.06,0,0,1-10.67,2.64c-4.11-.92-7.59-3.53-10.69-6.43A53,53,0,0,1,3.94,24.64a25.7,25.7,0,0,1-2.7-5.55A29.5,29.5,0,0,1,0,12.66C0,10.53.13,13.81,0,12.66Z"/></g></g></g></g></svg>